<mxfile host="app.diagrams.net" modified="2022-06-19T19:40:30.264Z" agent="5.0 (Macintosh; Intel Mac OS X 10_15_7) AppleWebKit/537.36 (KHTML, like Gecko) Chrome/102.0.0.0 Safari/537.36" etag="rfbOdZJrC9pCIGPiehGD" version="20.0.1" type="github">
  <diagram id="SXbvV8yzEHxTvnBgiOMq" name="Page-1">
    <mxGraphModel dx="1426" dy="737" grid="1" gridSize="10" guides="1" tooltips="1" connect="1" arrows="1" fold="1" page="1" pageScale="1" pageWidth="850" pageHeight="1100" math="0" shadow="0">
      <root>
        <mxCell id="0" />
        <mxCell id="1" parent="0" />
        <mxCell id="BkesVNJEfoXiRqiCxHY0-2" value="" style="sketch=0;aspect=fixed;html=1;points=[];align=center;image;fontSize=12;image=img/lib/mscae/Device_Compliance.svg;" vertex="1" parent="1">
          <mxGeometry x="50" y="279" width="41" height="50" as="geometry" />
        </mxCell>
        <mxCell id="BkesVNJEfoXiRqiCxHY0-25" style="edgeStyle=orthogonalEdgeStyle;rounded=0;orthogonalLoop=1;jettySize=auto;html=1;entryX=0.5;entryY=1;entryDx=0;entryDy=0;" edge="1" parent="1" source="BkesVNJEfoXiRqiCxHY0-14" target="BkesVNJEfoXiRqiCxHY0-24">
          <mxGeometry relative="1" as="geometry" />
        </mxCell>
        <mxCell id="BkesVNJEfoXiRqiCxHY0-14" value="" style="rounded=0;whiteSpace=wrap;html=1;" vertex="1" parent="1">
          <mxGeometry x="333.5" y="220" width="100" height="350" as="geometry" />
        </mxCell>
        <mxCell id="BkesVNJEfoXiRqiCxHY0-17" style="edgeStyle=orthogonalEdgeStyle;rounded=0;orthogonalLoop=1;jettySize=auto;html=1;" edge="1" parent="1" source="BkesVNJEfoXiRqiCxHY0-2" target="BkesVNJEfoXiRqiCxHY0-9">
          <mxGeometry relative="1" as="geometry">
            <Array as="points">
              <mxPoint x="71" y="360" />
              <mxPoint x="270" y="360" />
              <mxPoint x="270" y="276" />
            </Array>
          </mxGeometry>
        </mxCell>
        <mxCell id="BkesVNJEfoXiRqiCxHY0-3" value="Load Balancer" style="outlineConnect=0;dashed=0;verticalLabelPosition=bottom;verticalAlign=top;align=center;html=1;shape=mxgraph.aws3.classic_load_balancer;fillColor=#F58536;gradientColor=none;" vertex="1" parent="1">
          <mxGeometry x="160" y="329" width="69" height="72" as="geometry" />
        </mxCell>
        <mxCell id="BkesVNJEfoXiRqiCxHY0-9" value="" style="sketch=0;pointerEvents=1;shadow=0;dashed=0;html=1;strokeColor=none;labelPosition=center;verticalLabelPosition=bottom;verticalAlign=top;outlineConnect=0;align=center;shape=mxgraph.office.servers.physical_host;fillColor=#2072B8;" vertex="1" parent="1">
          <mxGeometry x="370" y="250" width="27" height="52" as="geometry" />
        </mxCell>
        <mxCell id="BkesVNJEfoXiRqiCxHY0-10" value="" style="sketch=0;pointerEvents=1;shadow=0;dashed=0;html=1;strokeColor=none;labelPosition=center;verticalLabelPosition=bottom;verticalAlign=top;outlineConnect=0;align=center;shape=mxgraph.office.servers.physical_host;fillColor=#2072B8;" vertex="1" parent="1">
          <mxGeometry x="370" y="360" width="27" height="52" as="geometry" />
        </mxCell>
        <mxCell id="BkesVNJEfoXiRqiCxHY0-11" value="" style="sketch=0;pointerEvents=1;shadow=0;dashed=0;html=1;strokeColor=none;labelPosition=center;verticalLabelPosition=bottom;verticalAlign=top;outlineConnect=0;align=center;shape=mxgraph.office.servers.physical_host;fillColor=#2072B8;" vertex="1" parent="1">
          <mxGeometry x="370" y="470" width="27" height="52" as="geometry" />
        </mxCell>
        <mxCell id="BkesVNJEfoXiRqiCxHY0-15" value="MessageBrokerService" style="rounded=0;whiteSpace=wrap;html=1;" vertex="1" parent="1">
          <mxGeometry x="570" y="230" width="140" height="330" as="geometry" />
        </mxCell>
        <mxCell id="BkesVNJEfoXiRqiCxHY0-19" style="edgeStyle=orthogonalEdgeStyle;rounded=0;orthogonalLoop=1;jettySize=auto;html=1;" edge="1" parent="1" source="BkesVNJEfoXiRqiCxHY0-18" target="BkesVNJEfoXiRqiCxHY0-11">
          <mxGeometry relative="1" as="geometry">
            <Array as="points">
              <mxPoint x="61" y="380" />
              <mxPoint x="270" y="380" />
              <mxPoint x="270" y="500" />
            </Array>
          </mxGeometry>
        </mxCell>
        <mxCell id="BkesVNJEfoXiRqiCxHY0-18" value="" style="sketch=0;aspect=fixed;html=1;points=[];align=center;image;fontSize=12;image=img/lib/mscae/Device_Compliance.svg;" vertex="1" parent="1">
          <mxGeometry x="50" y="480" width="41" height="50" as="geometry" />
        </mxCell>
        <mxCell id="BkesVNJEfoXiRqiCxHY0-22" value="GatewayService" style="text;html=1;strokeColor=none;fillColor=none;align=center;verticalAlign=middle;whiteSpace=wrap;rounded=0;" vertex="1" parent="1">
          <mxGeometry x="353.5" y="570" width="60" height="30" as="geometry" />
        </mxCell>
        <mxCell id="BkesVNJEfoXiRqiCxHY0-23" value="MessageBrokerService" style="rounded=0;whiteSpace=wrap;html=1;" vertex="1" parent="1">
          <mxGeometry x="570" y="120" width="140" height="60" as="geometry" />
        </mxCell>
        <mxCell id="BkesVNJEfoXiRqiCxHY0-24" value="AuthService" style="rounded=0;whiteSpace=wrap;html=1;" vertex="1" parent="1">
          <mxGeometry x="313.5" y="90" width="140" height="60" as="geometry" />
        </mxCell>
      </root>
    </mxGraphModel>
  </diagram>
</mxfile>
